{
    "asset" : {
        "generator" : "Khronos glTF Blender I/O v1.6.16",
        "version" : "2.0"
    },
    "scene" : 0,
    "scenes" : [
        {
            "name" : "Scene",
            "nodes" : [
                2,
                3
            ]
        }
    ],
    "nodes" : [
        {
            "mesh" : 0,
            "name" : "\u68f1\u89d2\u7403.001",
            "scale" : [
                1.100000023841858,
                1.100000023841858,
                1.100000023841858
            ]
        },
        {
            "mesh" : 1,
            "name" : "\u68f1\u89d2\u7403.002",
            "scale" : [
                1.100000023841858,
                1.100000023841858,
                1.100000023841858
            ]
        },
        {
            "children" : [
                0,
                1
            ],
            "name" : "\u7a7a\u7269\u4f53"
        },
        {
            "mesh" : 2,
            "name" : "\u68f1\u89d2\u7403",
            "scale" : [
                2.9563655853271484,
                2.9563655853271484,
                2.9563655853271484
            ]
        }
    ],
    "materials" : [
        {
            "doubleSided" : true,
            "name" : "\u6750\u8d28.003",
            "pbrMetallicRoughness" : {
                "baseColorFactor" : [
                    0.013628729619085789,
                    0.2055778056383133,
                    0.8412113189697266,
                    1
                ],
                "metallicFactor" : 0,
                "roughnessFactor" : 0.4000000059604645
            }
        },
        {
            "doubleSided" : true,
            "name" : "\u6750\u8d28.002",
            "pbrMetallicRoughness" : {
                "baseColorFactor" : [
                    0.28651711344718933,
                    0.6988029479980469,
                    0.9911022186279297,
                    1
                ],
                "metallicFactor" : 0,
                "roughnessFactor" : 0.4000000059604645
            }
        },
        {
            "alphaCutoff" : 0.5,
            "alphaMode" : "MASK",
            "doubleSided" : true,
            "name" : "\u6750\u8d28",
            "pbrMetallicRoughness" : {
                "baseColorFactor" : [
                    0.02550704963505268,
                    0.1347309798002243,
                    0.3672424554824829,
                    1
                ],
                "metallicFactor" : 0,
                "roughnessFactor" : 0.4000000059604645
            }
        }
    ],
    "meshes" : [
        {
            "name" : "\u68f1\u89d2\u7403.002",
            "primitives" : [
                {
                    "attributes" : {
                        "POSITION" : 0,
                        "NORMAL" : 1,
                        "TEXCOORD_0" : 2
                    },
                    "indices" : 3,
                    "material" : 0
                }
            ]
        },
        {
            "name" : "\u68f1\u89d2\u7403.003",
            "primitives" : [
                {
                    "attributes" : {
                        "POSITION" : 4,
                        "NORMAL" : 5,
                        "TEXCOORD_0" : 6
                    },
                    "indices" : 7,
                    "material" : 1
                }
            ]
        },
        {
            "name" : "\u68f1\u89d2\u7403",
            "primitives" : [
                {
                    "attributes" : {
                        "POSITION" : 8,
                        "NORMAL" : 9,
                        "TEXCOORD_0" : 10
                    },
                    "indices" : 11,
                    "material" : 2
                }
            ]
        }
    ],
    "accessors" : [
        {
            "bufferView" : 0,
            "componentType" : 5126,
            "count" : 8538,
            "max" : [
                0.9801055192947388,
                0.9905576705932617,
                1.0001235008239746
            ],
            "min" : [
                -0.9874712228775024,
                -0.9934839606285095,
                -0.9909856915473938
            ],
            "type" : "VEC3"
        },
        {
            "bufferView" : 1,
            "componentType" : 5126,
            "count" : 8538,
            "type" : "VEC3"
        },
        {
            "bufferView" : 2,
            "componentType" : 5126,
            "count" : 8538,
            "type" : "VEC2"
        },
        {
            "bufferView" : 3,
            "componentType" : 5123,
            "count" : 12672,
            "type" : "SCALAR"
        },
        {
            "bufferView" : 4,
            "componentType" : 5126,
            "count" : 675,
            "max" : [
                0.9967172145843506,
                0.9840065836906433,
                0.9999999403953552
            ],
            "min" : [
                -0.9975240230560303,
                -0.9989045858383179,
                -0.9993095397949219
            ],
            "type" : "VEC3"
        },
        {
            "bufferView" : 5,
            "componentType" : 5126,
            "count" : 675,
            "type" : "VEC3"
        },
        {
            "bufferView" : 6,
            "componentType" : 5126,
            "count" : 675,
            "type" : "VEC2"
        },
        {
            "bufferView" : 7,
            "componentType" : 5123,
            "count" : 675,
            "type" : "SCALAR"
        },
        {
            "bufferView" : 8,
            "componentType" : 5126,
            "count" : 5298,
            "max" : [
                1.0000373125076294,
                1.0000368356704712,
                1.0000369548797607
            ],
            "min" : [
                -1.0000373125076294,
                -1.0000369548797607,
                -1.0000368356704712
            ],
            "type" : "VEC3"
        },
        {
            "bufferView" : 9,
            "componentType" : 5126,
            "count" : 5298,
            "type" : "VEC3"
        },
        {
            "bufferView" : 10,
            "componentType" : 5126,
            "count" : 5298,
            "type" : "VEC2"
        },
        {
            "bufferView" : 11,
            "componentType" : 5123,
            "count" : 46080,
            "type" : "SCALAR"
        }
    ],
    "bufferViews" : [
        {
            "buffer" : 0,
            "byteLength" : 102456,
            "byteOffset" : 0
        },
        {
            "buffer" : 0,
            "byteLength" : 102456,
            "byteOffset" : 102456
        },
        {
            "buffer" : 0,
            "byteLength" : 68304,
            "byteOffset" : 204912
        },
        {
            "buffer" : 0,
            "byteLength" : 25344,
            "byteOffset" : 273216
        },
        {
            "buffer" : 0,
            "byteLength" : 8100,
            "byteOffset" : 298560
        },
        {
            "buffer" : 0,
            "byteLength" : 8100,
            "byteOffset" : 306660
        },
        {
            "buffer" : 0,
            "byteLength" : 5400,
            "byteOffset" : 314760
        },
        {
            "buffer" : 0,
            "byteLength" : 1350,
            "byteOffset" : 320160
        },
        {
            "buffer" : 0,
            "byteLength" : 63576,
            "byteOffset" : 321512
        },
        {
            "buffer" : 0,
            "byteLength" : 63576,
            "byteOffset" : 385088
        },
        {
            "buffer" : 0,
            "byteLength" : 42384,
            "byteOffset" : 448664
        },
        {
            "buffer" : 0,
            "byteLength" : 92160,
            "byteOffset" : 491048
        }
    ],
    "buffers" : [
        {
            "byteLength" : 583208,
            "uri" : "data:application/octet-stream;base64,"
        }
    ]
}
