<svg xmlns="http://www.w3.org/2000/svg" viewBox="0 0 80 79.47">
  <defs>
    <style>.cls-1{fill:#b8d9f6;}.cls-2{fill:#99c9f2;}.cls-3{fill:#e0effb;}.cls-4{fill:#5ca8ea;}.cls-5{fill:#fff;}
    </style>
  </defs>
  <g id="图层_2" data-name="图层 2">
    <g id="图层_1-2" data-name="图层 1">
      <path class="cls-1" d="M0,41.77,39.85,65V79.47L0,56.18Z"/>
      <path class="cls-2" d="M79.71,41.77,39.85,65V79.47L79.94,55.92,80,41.74Z"/>
      <path class="cls-3" d="M80,41.77,39.92,18.89.3,41.77,39.85,65Z"/>
      <path class="cls-1" d="M0,22.87,39.85,46.14V60.55L0,37.28V22.88Z"/>
      <path class="cls-2" d="M79.71,22.87,39.85,46.14V60.55L79.93,37.06,80,22.88Z"/>
      <path class="cls-4"
            d="M70.4,32.38h-.15L49.46,44.53v2L70.37,34.31Zm-20.94,17v2L70.37,39.22l0-1.93h-.15ZM70.4,52.27h-.15L49.46,64.42v2L70.37,54.2Zm-20.94,17v2.05L70.37,59.11l0-1.93h-.15Z"/>
      <path class="cls-3" d="M80,22.88,39.92,0,.3,22.87,39.85,46.08Z"/>
      <path class="cls-5" d="M67.42,22.93,40,7.27,12.88,22.93,40,38.81Z"/>
      <path class="cls-3" d="M55,23,40.07,14.45,25.31,23,40,31.64Z"/>
      <path class="cls-4"
            d="M12,55.68c-.89-.46-1.61-.1-1.61.82A3.12,3.12,0,0,0,12,59c.9.46,1.62.09,1.62-.82A3.11,3.11,0,0,0,12,55.68Zm5.47,3.19c-.89-.47-1.62-.1-1.62.82a3.17,3.17,0,0,0,1.62,2.5c.89.46,1.62.09,1.62-.83A3.12,3.12,0,0,0,17.43,58.87ZM22.91,62c-.89-.47-1.62-.1-1.62.82a3.1,3.1,0,0,0,1.62,2.49c.89.47,1.62.1,1.62-.82A3.14,3.14,0,0,0,22.91,62ZM12,36.28c-.89-.47-1.61-.1-1.61.82A3.14,3.14,0,0,0,12,39.6c.9.46,1.62.09,1.62-.83A3.1,3.1,0,0,0,12,36.28Zm5.47,3.16c-.89-.46-1.62-.09-1.62.82a3.16,3.16,0,0,0,1.62,2.5c.89.46,1.62.1,1.62-.82A3.13,3.13,0,0,0,17.43,39.44Zm5.48,3.17c-.89-.46-1.62-.09-1.62.83a3.11,3.11,0,0,0,1.62,2.49c.89.46,1.62.1,1.62-.82A3.17,3.17,0,0,0,22.91,42.61Z"/>
    </g>
  </g>
</svg>
