<svg xmlns="http://www.w3.org/2000/svg" xmlns:xlink="http://www.w3.org/1999/xlink" width="13.5px" height="13.5px"><path fill-rule="evenodd"  stroke="rgb(59, 120, 242)" stroke-width="1px" stroke-linecap="butt" stroke-linejoin="miter" fill="rgb(3, 21, 44)" d="M2.500,0.500 L10.500,0.500 C11.605,0.500 12.500,1.395 12.500,2.500 L12.500,10.500 C12.500,11.605 11.605,12.500 10.500,12.500 L2.500,12.500 C1.395,12.500 0.500,11.605 0.500,10.500 L0.500,2.500 C0.500,1.395 1.395,0.500 2.500,0.500 Z"/><path fill-rule="evenodd"  fill="rgb(59, 120, 242)" d="M4.000,6.000 L9.000,6.000 C9.276,6.000 9.500,6.224 9.500,6.500 C9.500,6.776 9.276,7.000 9.000,7.000 L4.000,7.000 C3.724,7.000 3.500,6.776 3.500,6.500 C3.500,6.224 3.724,6.000 4.000,6.000 Z"/></svg>