<svg  xmlns="http://www.w3.org/2000/svg" xmlns:xlink="http://www.w3.org/1999/xlink" width="13.5px" height="13.5px"><path fill-rule="evenodd"  stroke="rgb(59, 120, 242)" stroke-width="1px" stroke-linecap="butt" stroke-linejoin="miter" fill="rgb(3, 21, 44)" d="M2.500,0.500 L10.500,0.500 C11.605,0.500 12.500,1.395 12.500,2.500 L12.500,10.500 C12.500,11.605 11.605,12.500 10.500,12.500 L2.500,12.500 C1.396,12.500 0.500,11.605 0.500,10.500 L0.500,2.500 C0.500,1.395 1.396,0.500 2.500,0.500 Z"/><path fill-rule="evenodd"  fill="rgb(59, 120, 242)" d="M3.500,6.000 L9.500,6.000 C9.776,6.000 10.000,6.224 10.000,6.500 C10.000,6.776 9.776,7.000 9.500,7.000 L3.500,7.000 C3.224,7.000 3.000,6.776 3.000,6.500 C3.000,6.224 3.224,6.000 3.500,6.000 Z"/><path fill-rule="evenodd"  fill="rgb(59, 120, 242)" d="M6.500,3.000 C6.776,3.000 7.000,3.224 7.000,3.500 L7.000,9.500 C7.000,9.776 6.776,10.000 6.500,10.000 C6.224,10.000 6.000,9.776 6.000,9.500 L6.000,3.500 C6.000,3.224 6.224,3.000 6.500,3.000 Z"/></svg>