<svg xmlns="http://www.w3.org/2000/svg" viewBox="0 0 74.31 80">
  <defs>
    <style>.cls-31{fill:#99c9f2;}.cls-32{fill:#b8d9f6;}.cls-33{fill:#5ca8ea;}.cls-34{fill:#e0effb;}</style>
  </defs>
  <g id="图层_2" data-name="图层 2">
    <g id="图层_1-2" data-name="图层 1">
      <path class="cls-31" d="M14.17,61.84l-.08-38.78L40.72,8.14l.08,38.79Z"/>
      <path class="cls-32" d="M14.09,61.84.08,53.7,0,14.91l14,8.15Z"/>
      <path class="cls-33"
            d="M11,28.44,2.29,23.35l0-2.15L11,26.28Zm0,4.77L2.29,28.13l0-2.15L11,31.06Zm0,22.42L2.29,50.54l0-2.15L11,53.47ZM3.64,33.85l-1.36-.78V31.16l1.35.78ZM6.1,35.3l-1.36-.78v-1.9l1.36.78Zm2.46,1.4-1.35-.78,0-1.9,1.36.78ZM11,38.14l-1.35-.78,0-1.91,1.36.79Z"/>
      <path class="cls-34" d="M14.09,23.1,0,14.91,26.62,0l14,8.14Z"/>
      <path class="cls-31" d="M40,56.77v1.09c0,3.86,5.71,7,12.75,7s12.74-3.17,12.74-7V56.77Z"/>
      <path class="cls-34" d="M40,56.77c0,3.86,5.71,7,12.75,7s12.74-3.12,12.74-7-5.7-7-12.74-7S40,52.9,40,56.76Z"/>
      <path class="cls-32"
            d="M74.31,38.88a1.6,1.6,0,0,0-.79-1.38l-33-19.32a1.59,1.59,0,0,0-2.38,1.39l.08,24.6A1.54,1.54,0,0,0,39,45.54l10.68,6.25v4.5l3.36,2L53,53.75l19,11.07a1.58,1.58,0,0,0,2.16-.58,1.6,1.6,0,0,0,.21-.81Z"/>
      <path class="cls-34"
            d="M72.4,39.73a1.56,1.56,0,0,0-.8-1.37l-33-19.31a1.58,1.58,0,0,0-2.16.58,1.66,1.66,0,0,0-.21.81l0,24.62A1.57,1.57,0,0,0,37,46.43l12.22,7.12v2.51l3.36,2V55.52l17.44,10.2a1.6,1.6,0,0,0,2.16-.58,1.67,1.67,0,0,0,.21-.82Z"/>
      <path class="cls-33"
            d="M68.26,62.45,39,45.35a1.42,1.42,0,0,1-.7-1.22l-.06-20.56a1.41,1.41,0,0,1,1.42-1.42,1.38,1.38,0,0,1,.71.19l29.25,17.1a1.43,1.43,0,0,1,.73,1.23l.06,20.56A1.43,1.43,0,0,1,69,62.66,1.38,1.38,0,0,1,68.26,62.45Z"/>
      <path class="cls-32" d="M21.75,65.94l21.4,12.48V80L21.75,67.49V65.94Z"/>
      <path class="cls-31" d="M52.52,73l-9.37,5.39V80l9.37-5.47Z"/>
      <path class="cls-34" d="M52.52,73,31,60.74,21.75,66l21.4,12.44Z"/>
      <path class="cls-33" d="M48.43,72.32,31.62,62.74l-.72.51L47.63,73Z"/>
    </g>
  </g>
</svg>
