<svg  xmlns="http://www.w3.org/2000/svg"  xmlns:xlink="http://www.w3.org/1999/xlink"  width="123px" height="36px">  <defs>    <filter filterUnits="userSpaceOnUse" id="Filter_0" x="107.5px" y="11px" width="15px" height="16px">      <feOffset in="SourceAlpha" dx="0" dy="1"/>      <feGaussianBlur result="blurOut" stdDeviation="1.414"/>      <feFlood flood-color="rgb(16, 38, 70)" result="floodOut"/>      <feComposite operator="atop" in="floodOut" in2="blurOut"/>      <feComponentTransfer>        <feFuncA type="linear" slope="0.5"/>      </feComponentTransfer>      <feMerge>        <feMergeNode/>        <feMergeNode in="SourceGraphic"/>      </feMerge>    </filter>    <filter filterUnits="userSpaceOnUse" id="Filter_1" x="-0.5px" y="11px" width="15px" height="16px">      <feOffset in="SourceAlpha" dx="0" dy="1"/>      <feGaussianBlur result="blurOut" stdDeviation="1.414"/>      <feFlood flood-color="rgb(16, 38, 70)" result="floodOut"/>      <feComposite operator="atop" in="floodOut" in2="blurOut"/>      <feComponentTransfer>        <feFuncA type="linear" slope="0.5"/>      </feComponentTransfer>      <feMerge>        <feMergeNode/>        <feMergeNode in="SourceGraphic"/>      </feMerge>    </filter>  </defs>  <g filter="url(#Filter_0)">    <path fill-rule="evenodd" stroke="rgb(59, 120, 242)" stroke-width="1px" stroke-linecap="butt"          stroke-linejoin="miter" fill="rgb(16, 38, 70)"          d="M114.500,12.594 C117.227,12.594 119.438,14.811 119.438,17.547 C119.438,20.282 117.227,22.500 114.500,22.500 C111.773,22.500 109.562,20.282 109.562,17.547 C109.562,14.811 111.773,12.594 114.500,12.594 Z"/>  </g>  <g filter="url(#Filter_1)">    <path fill-rule="evenodd" stroke="rgb(59, 120, 242)" stroke-width="1px" stroke-linecap="butt"          stroke-linejoin="miter" fill="rgb(16, 38, 70)"          d="M6.500,12.594 C9.227,12.594 11.438,14.811 11.438,17.547 C11.438,20.282 9.227,22.500 6.500,22.500 C3.773,22.500 1.562,20.282 1.562,17.547 C1.562,14.811 3.773,12.594 6.500,12.594 Z"/>  </g></svg>